<svg width="96" height="96" xmlns="http://www.w3.org/2000/svg" xmlns:xlink="http://www.w3.org/1999/xlink" xml:space="preserve" overflow="hidden"><g transform="translate(-296 -385)"><path d="M344 455C338.981 455.004 334.114 453.282 330.214 450.123 329.456 450.365 328.7 450.606 327.959 450.833 337.797 459.7 352.961 458.912 361.828 449.074 365.46 445.044 367.618 439.901 367.95 434.485 367.259 434.842 366.559 435.199 365.85 435.558 364.54 446.637 355.156 454.987 344 455Z"/><path d="M387.885 415.523C386.138 411.295 373.039 414.272 362.339 417.523 353.789 407.395 338.647 406.115 328.518 414.666 323.118 419.225 320.001 425.932 320 433 320 433.673 320.038 434.337 320.093 435 310.287 440.22 298.986 447.323 300.726 451.536 300.984 452.159 301.588 453.625 306.066 453.625 309.589 453.507 313.088 453.013 316.506 452.152 327.172 449.543 337.609 446.076 347.717 441.786 357.905 437.691 367.746 432.78 377.143 427.1 389.461 419.339 388.275 416.467 387.885 415.523ZM342.485 411.051C352.388 410.382 361.513 416.422 364.765 425.8 359.811 428.439 353.274 431.606 344.934 435.052 336.507 438.534 329.584 440.919 324.189 442.552 318.908 431.621 323.488 418.478 334.419 413.196 336.948 411.975 339.687 411.249 342.489 411.058ZM366.552 424.833C366.452 424.547 366.352 424.256 366.243 423.976 367.447 423.627 368.614 423.305 369.743 423.008 369.781 422.998 369.785 423.008 369.751 423.026 368.784 423.588 367.717 424.19 366.552 424.833ZM322.247 443.119C321.031 443.469 319.905 443.779 318.869 444.05 318.831 444.06 318.828 444.05 318.862 444.032 319.827 443.47 320.841 442.898 321.893 442.319 322.007 442.588 322.124 442.855 322.247 443.119ZM376.077 425.405C366.776 431.025 357.036 435.885 346.953 439.937 336.951 444.184 326.621 447.616 316.066 450.2 306.135 452.438 302.897 451.552 302.575 450.771 302.036 449.471 306.422 444.628 320.361 437.122 320.556 438.24 320.831 439.343 321.183 440.422L321.122 440.457C318.022 442.157 315.251 443.808 312.898 445.357 312.4 445.677 312.255 446.34 312.575 446.838 312.774 447.148 313.117 447.334 313.485 447.331 313.558 447.331 313.631 447.324 313.702 447.309 318.681 446.299 329.457 443.601 345.702 436.89 361.947 430.179 371.48 424.49 375.721 421.69 376.219 421.368 376.361 420.704 376.039 420.206 375.797 419.832 375.349 419.646 374.913 419.74 372.156 420.3 369.041 421.081 365.706 422.05L365.396 422.122C364.883 421.115 364.299 420.146 363.649 419.222 378.921 414.656 385.5 414.975 386.041 416.285 386.359 417.068 384.693 419.979 376.077 425.405Z"/></g></svg>